<?xml version="1.0" encoding="utf-8"?>
<!-- Generator: Adobe Illustrator 21.0.0, SVG Export Plug-In . SVG Version: 6.00 Build 0)  -->
<svg version="1.1" id="Layer_1" xmlns="http://www.w3.org/2000/svg" xmlns:xlink="http://www.w3.org/1999/xlink" x="0px" y="0px"
	 viewBox="0 0 175 50" style="enable-background:new 0 0 175 50;" xml:space="preserve">
<style type="text/css">
	.st0{fill:#FFFFFF;}
</style>
<g>
	<path class="st0" d="M129.3,25.1c0-6,0-12.1,0-18.1c0-1.7,1.3-3.2,3.2-3.2c12.1,0,24.2,0,36.3,0c1.9,0,3.2,1.4,3.2,3.2
		c0,12.1,0,24.2,0,36.2c0,1.9-1.4,3.2-3.2,3.2c-12.1,0-24.2,0-36.3,0c-1.6,0-2.8-1-3.1-2.5c0-0.2,0-0.4,0-0.7
		C129.3,37.2,129.3,31.2,129.3,25.1z M152.1,22.3c0-0.7,0-1.4,0-2.2c0-0.3-0.1-0.5-0.4-0.5c-1.8,0-3.6,0-5.4,0
		c-0.3,0-0.4,0.1-0.4,0.4c0,6.6,0,13.1,0,19.7c0,0.3,0.1,0.4,0.4,0.4c1.9,0,3.7,0,5.6,0c0.3,0,0.4-0.1,0.4-0.4c0-3.1,0-6.2,0-9.3
		c0-0.8,0.1-1.5,0.1-2.3c0.1-0.8,0.4-1.6,1-2.3c0.8-0.8,1.7-1,2.8-1c1.5,0,2.4,0.7,2.8,2.1c0.3,0.9,0.3,1.8,0.3,2.8
		c0,3.3,0,6.6,0,9.9c0,0.5,0,0.5,0.5,0.5c1.8,0,3.6,0,5.4,0c0.6,0,0.6,0,0.6-0.6c0-4,0-8-0.1-12.1c0-1.2-0.2-2.4-0.5-3.6
		c-0.5-1.8-1.5-3.3-3.3-4.1c-1.9-0.8-3.8-1-5.8-0.5C154.5,19.9,153.1,20.8,152.1,22.3z M142,30c0-3.3,0-6.6,0-9.8
		c0-0.3-0.1-0.4-0.4-0.4c-1.9,0-3.7,0-5.6,0c-0.3,0-0.4,0.1-0.4,0.4c0,6.6,0,13.1,0,19.7c0,0.3,0.1,0.4,0.4,0.4c1.9,0,3.7,0,5.6,0
		c0.3,0,0.4-0.1,0.4-0.4C142,36.5,142,33.2,142,30z M138.8,9.5c-2.2,0.1-3.7,1.8-3.7,3.8c0,2,1.5,3.7,3.7,3.7c2.1,0,3.7-1.6,3.7-3.7
		C142.5,11.1,140.9,9.6,138.8,9.5z"/>
	<path class="st0" d="M117.1,40.1c0-0.9,0-1.8,0-2.7c-0.1,0.1-0.1,0.1-0.2,0.2c-1.9,2.3-4.3,3.3-7.2,3c-2.2-0.2-4.2-1-5.9-2.5
		c-1.6-1.5-2.6-3.4-3-5.6c-0.6-3.1-0.2-6.1,1.5-8.9c1.4-2.4,3.4-4,6.1-4.4c2.3-0.4,4.6-0.2,6.6,1.2c0.6,0.4,1,0.9,1.5,1.3
		c0-3.9,0-7.7,0-11.7c2.1,0,4.2,0,6.3,0c0,10,0,20,0,30C121,40.1,119,40.1,117.1,40.1z M117.2,29.9c-0.1-0.7-0.2-1.4-0.4-2
		c-0.5-1.5-1.5-2.5-3-2.9c-1.2-0.4-2.5-0.4-3.7,0.1c-1.4,0.5-2.3,1.5-2.8,2.8c-0.5,1.4-0.5,2.7,0,4.1c0.8,2.2,2.6,3.2,4.9,3.1
		c1.2,0,2.3-0.3,3.3-1.2C116.6,32.8,117,31.4,117.2,29.9z"/>
	<path class="st0" d="M64.1,30.1c0,3.3,0,6.7,0,10c-2.1,0-4.2,0-6.3,0c0-10,0-20,0-30.1c2.1,0,4.2,0,6.3,0c0,5.9,0,11.9,0,18
		c0.3-0.3,0.4-0.5,0.6-0.7c2.1-2.5,4.3-4.9,6.4-7.4c0.1-0.1,0.2-0.2,0.4-0.2c2.4,0,4.9,0,7.3,0c0,0,0.1,0,0.2,0
		c-0.3,0.4-0.6,0.7-0.9,1c-2.4,2.7-4.8,5.4-7.1,8.1c-0.2,0.2-0.2,0.4,0,0.6c2.6,3.5,5.1,6.9,7.7,10.4c0.1,0.1,0.1,0.2,0.2,0.3
		c-0.1,0-0.2,0-0.3,0c-2.4,0-4.9,0-7.3,0c-0.2,0-0.4-0.1-0.5-0.3c-2.1-3.2-4.2-6.3-6.3-9.5C64.4,30.3,64.3,30.2,64.1,30.1
		C64.2,30.1,64.1,30.1,64.1,30.1z"/>
	<path class="st0" d="M98.8,31.9c-4.9,0-9.8,0-14.7,0c0.1,1.4,1.2,3,2.8,3.6c1.8,0.7,4.4,0.6,6.4-2.1c1.5,1.1,2.9,2.2,4.4,3.2
		c-0.6,0.7-1.2,1.3-1.9,1.9c-2.5,1.8-5.2,2.5-8.3,2.1c-2.4-0.3-4.6-1.1-6.4-2.7c-2.1-1.8-3.2-4.2-3.5-6.9c-0.2-2.3,0.2-4.5,1.3-6.5
		c1.6-2.8,4.1-4.4,7.2-5.1c2.1-0.5,4.2-0.5,6.2,0.2c2.9,1,4.7,3.1,5.6,5.9c0.4,1.3,0.6,2.7,0.6,4.1C98.8,30.4,98.8,31.1,98.8,31.9z
		 M84.1,27.5c2.8,0,5.6,0,8.4,0c0-1-0.3-1.9-1-2.7c-1.4-1.5-3.9-1.6-5.7-0.3C84.7,25.3,84.2,26.3,84.1,27.5z"/>
	<path class="st0" d="M41.1,40.1c-2.1,0-4.2,0-6.3,0c0-6.8,0-13.6,0-20.4c2,0,4,0,6.1,0c0,0.9,0,1.8,0,2.8c0.1-0.1,0.2-0.2,0.2-0.2
		c1.2-1.9,2.9-2.8,5.1-3.1c1.6-0.2,3.2,0,4.7,0.7c1.7,0.8,2.6,2.2,3.1,3.9c0.4,1.4,0.6,2.8,0.6,4.3c0,3.9,0,7.8,0,11.7
		c0,0.1,0,0.1,0,0.2c-2.1,0-4.2,0-6.3,0c0-0.1,0-0.3,0-0.4c0-3.4,0-6.7,0-10.1c0-0.7-0.1-1.4-0.2-2.1c-0.3-1.9-1.7-2.9-3.6-2.7
		c-1.8,0.2-2.8,1.2-3.1,3.1c-0.1,0.6-0.2,1.3-0.2,2c0,3.3,0,6.5,0,9.8C41.1,39.8,41.1,40,41.1,40.1z"/>
	<path class="st0" d="M3.2,10.1c2.2,0,4.4,0,6.6,0c0,8,0,16,0,24c4.1,0,8.1,0,12.2,0c0,2,0,4,0,6.1c-6.2,0-12.5,0-18.8,0
		C3.2,30.1,3.2,20.1,3.2,10.1z"/>
	<path class="st0" d="M24.9,19.8c2.1,0,4.2,0,6.3,0c0,6.8,0,13.5,0,20.3c-2.1,0-4.2,0-6.3,0C24.9,33.4,24.9,26.6,24.9,19.8z"/>
	<path class="st0" d="M28.1,9.6c2.1,0,3.7,1.6,3.7,3.7c0,2-1.6,3.7-3.7,3.7c-2,0-3.7-1.6-3.7-3.7C24.4,11.2,26,9.6,28.1,9.6z"/>
</g>
</svg>
