<?xml version="1.0" encoding="UTF-8" standalone="no"?>
<!-- Created with Inkscape (http://www.inkscape.org/) -->

<svg
   xmlns:dc="http://purl.org/dc/elements/1.1/"
   xmlns:cc="http://creativecommons.org/ns#"
   xmlns:rdf="http://www.w3.org/1999/02/22-rdf-syntax-ns#"
   xmlns:svg="http://www.w3.org/2000/svg"
   xmlns="http://www.w3.org/2000/svg"
   xmlns:sodipodi="http://sodipodi.sourceforge.net/DTD/sodipodi-0.dtd"
   xmlns:inkscape="http://www.inkscape.org/namespaces/inkscape"
   id="svg3336"
   version="1.1"
   inkscape:version="0.91 r13725"
   xml:space="preserve"
   width="465"
   height="349"
   viewBox="0 0 465 349"
   sodipodi:docname="logo-lg.svg"><metadata
     id="metadata3342"><rdf:RDF><cc:Work
         rdf:about=""><dc:format>image/svg+xml</dc:format><dc:type
           rdf:resource="http://purl.org/dc/dcmitype/StillImage" /><dc:title></dc:title></cc:Work></rdf:RDF></metadata><defs
     id="defs3340"><clipPath
       clipPathUnits="userSpaceOnUse"
       id="clipPath3350"><path
         d="M 0,400 400,400 400,0 0,0 0,400 Z"
         id="path3352"
         inkscape:connector-curvature="0" /></clipPath></defs><sodipodi:namedview
     pagecolor="#ffffff"
     bordercolor="#666666"
     borderopacity="1"
     objecttolerance="10"
     gridtolerance="10"
     guidetolerance="10"
     inkscape:pageopacity="0"
     inkscape:pageshadow="2"
     inkscape:window-width="1920"
     inkscape:window-height="1027"
     id="namedview3338"
     showgrid="false"
     inkscape:object-paths="true"
     inkscape:zoom="1.704"
     inkscape:cx="250"
     inkscape:cy="250"
     inkscape:window-x="-8"
     inkscape:window-y="-8"
     inkscape:window-maximized="1"
     inkscape:current-layer="g3348" /><g
     id="g3344"
     inkscape:groupmode="layer"
     inkscape:label="LOGO NEW-2"
     transform="matrix(1.25,0,0,-1.25,0,349)"><g
       id="g3346"
       style="fill:#008000"><g
         id="g3348"
         clip-path="url(#clipPath3350)"
         style="fill:#008000"><g
           id="g3354"
           transform="translate(14.327344,264.37873)"
           style="fill:#ffffff"><path
             d="m 0,0 0,-250.885 33.213,0 c 34.4,0 49.03,19.267 49.03,61.901 l 0,127.083 C 82.243,-19.268 67.613,0 33.213,0 L 0,0 Z m -5.931,-263.593 c -4.35,0 -6.327,2.05 -6.327,6.559 l 0,263.593 c 0,3.279 2.768,6.149 6.327,6.149 l 39.144,0 c 42.308,0 61.683,-25.416 61.683,-74.609 l 0,-127.083 c 0,-49.193 -19.375,-74.609 -61.683,-74.609 l -39.144,0 z"
             style="fill:#ffffff;fill-opacity:1;fill-rule:nonzero;stroke:none"
             id="path3356"
             inkscape:connector-curvature="0" /></g><g
           id="g3362"
           transform="translate(252.30784,241.01203)"
           style="fill:#ffffff"><path
             d="m 0,0 -49.82,-234.897 c -0.791,-3.28 -2.769,-4.919 -6.327,-4.919 -3.164,0 -5.14,1.639 -5.931,4.919 l -56.147,263.593 c -1.186,3.28 1.581,6.559 4.745,7.789 4.349,0.41 6.722,-1.23 7.512,-4.92 l 49.821,-234.897 50.215,234.897 c 0.397,3.28 2.373,4.919 5.932,4.919 3.559,0 5.535,-1.639 6.326,-4.919 l 49.82,-234.897 49.821,234.897 c 1.186,3.28 4.349,5.33 7.512,4.92 3.559,-1.23 5.932,-4.509 4.746,-7.789 L 62.078,-234.897 c -0.395,-3.28 -2.372,-4.919 -5.931,-4.919 -3.558,0 -5.536,1.639 -5.931,4.919 L 0,0 Z"
             style="fill:#ffffff;fill-opacity:1;fill-rule:nonzero;stroke:none"
             id="path3364"
             inkscape:connector-curvature="0" /></g><g
           id="g3458"
           transform="translate(299.48969,-30.990978)"
           style="fill:#008000" /></g></g></g></svg>