<?xml version="1.0" encoding="utf-8"?>
<!-- Generator: Adobe Illustrator 21.0.0, SVG Export Plug-In . SVG Version: 6.00 Build 0)  -->
<svg version="1.1" id="Layer_1" xmlns="http://www.w3.org/2000/svg" xmlns:xlink="http://www.w3.org/1999/xlink" x="0px" y="0px"
	 viewBox="0 0 50 50" style="enable-background:new 0 0 50 50;" xml:space="preserve">
<style type="text/css">
	.st0{fill:#FFFFFF;stroke:#FFFFFF;stroke-width:0.75;stroke-miterlimit:10;}
</style>
<g>
	<path class="st0" d="M32.5,47.5c-0.4-2.5-0.8-4.8-1.3-7.2c-0.3,0-0.6,0-0.8,0c-4.2,0-8.5,0-12.7,0c-0.7,0-0.9,0.2-1,0.8
		c-0.4,2.1-0.9,4.2-1.4,6.4c-1.1-0.1-2.3-0.4-3.4-0.4c-1.6,0-2.5-0.8-3.3-2.1c-0.9-1.5-2.1-2.9-3.1-4.4C5,40.2,5,39.8,5.3,39.3
		c4.1-7.6,8.2-15.3,12.3-22.9c2.3-4.4,4.7-8.8,7-13.2C24.7,3,24.8,2.8,25,2.5c0.6,1,1.1,2,1.6,2.9c6,11.3,12.1,22.6,18.1,33.9
		c0.3,0.6,0.2,0.9-0.2,1.3c-1.6,1.8-3.2,3.6-4.8,5.5c-0.4,0.4-0.7,0.7-1.3,0.7C36.5,47,34.5,47.3,32.5,47.5z M31.1,39.7
		c-0.8-4.5-1.5-8.8-2.3-13.3c-0.4,0.1-0.8,0.3-1.1,0.4c-2.6,1-5.1,2-7.7,3c-0.6,0.2-0.9,0.6-1,1.2c-0.5,2.5-1.1,5-1.7,7.5
		c-0.1,0.4-0.1,0.8-0.2,1.2C21.8,39.7,26.4,39.7,31.1,39.7z M24,6.2c-0.1,0-0.2-0.1-0.3-0.1c-4.8,9-9.6,18-14.5,27.2
		c0.5-0.1,0.7-0.2,0.9-0.3c2.6-1,5.1-2.1,7.7-3c0.7-0.3,1-0.6,1.1-1.3c1.5-6.6,3-13.2,4.5-19.8C23.6,8,23.8,7.1,24,6.2z M25.1,5.2
		c-0.1,0-0.2,0-0.2,0c-1.8,8-3.6,16-5.5,24.2c0.5-0.2,0.8-0.3,1-0.4c2.5-1,4.9-2,7.4-2.9c0.8-0.3,0.9-0.7,0.8-1.4
		c-1-5.4-1.9-10.9-2.9-16.4C25.5,7.3,25.3,6.2,25.1,5.2z M37.8,39.7C37,34.3,36.3,29,35.5,23.6c-2,0.8-3.9,1.5-5.8,2.3
		c-0.2,0.1-0.3,0.5-0.3,0.8c0.1,0.9,0.3,1.7,0.4,2.6c0.6,3.3,1.1,6.5,1.7,9.8c0,0.2,0.3,0.6,0.4,0.6C33.9,39.7,35.8,39.7,37.8,39.7z
		 M35.4,23.1c-3.1-5.9-6.3-11.7-9.4-17.5c-0.1,0-0.2,0.1-0.3,0.1c1.1,6.6,2.3,13.1,3.5,19.8C31.3,24.7,33.3,23.9,35.4,23.1z
		 M18.4,30.5c-0.1,0-0.2,0-0.2,0c-3,1.2-6,2.3-9,3.5c-0.1,0.1-0.3,0.4-0.3,0.5c0.2,1.5,0.4,3,0.5,4.5c0.1,0.5,0.3,0.6,0.8,0.6
		c1.8,0,3.7,0,5.5,0c0.5,0,0.7-0.2,0.8-0.7c0.6-2.6,1.2-5.2,1.7-7.8C18.3,31,18.3,30.8,18.4,30.5z M36.7,25.5
		c-0.1,0-0.2,0.1-0.3,0.1c0.1,1,0.3,2,0.4,3c0.5,3.5,1,7,1.5,10.5c0,0.2,0.3,0.6,0.5,0.6c1.8,0,3.5,0,5.5,0
		C41.7,34.9,39.2,30.2,36.7,25.5z M31.8,40.3c0.4,2.2,0.8,4.3,1.1,6.5c1.9-0.2,3.8-0.4,5.7-0.6c-0.3-2-0.6-3.9-0.8-5.9
		C35.8,40.3,33.9,40.3,31.8,40.3z M14.7,46.8c0.5-2.1,1-4.3,1.5-6.4c-2.3,0-4.4,0-6.6,0c0.2,1.8,0.4,3.5,0.6,5.1
		c0.1,0.6,0.4,0.8,0.9,0.9C12.2,46.5,13.4,46.7,14.7,46.8z M39.2,45.5c0.1,0,0.1,0.1,0.2,0.1c1.5-1.7,3-3.4,4.5-5.2
		c-1.9,0-3.7,0-5.5,0C38.8,42.1,39,43.8,39.2,45.5z M9.2,45c0.1,0,0.1-0.1,0.2-0.1c-0.2-1.4-0.3-2.8-0.5-4.2c0-0.1-0.3-0.3-0.4-0.3
		c-0.8,0-1.6,0-2.7,0C7.1,42,8.2,43.5,9.2,45z M5.8,39.7c1.1,0,2.1,0,3.1,0c-0.2-1.5-0.3-2.9-0.5-4.3c-0.1,0-0.2,0-0.3-0.1
		C7.3,36.7,6.6,38.1,5.8,39.7z"/>
</g>
</svg>
