<?xml version="1.0" encoding="utf-8"?>
<!-- Generator: Adobe Illustrator 21.0.0, SVG Export Plug-In . SVG Version: 6.00 Build 0)  -->
<svg version="1.1" id="Layer_1" xmlns="http://www.w3.org/2000/svg" xmlns:xlink="http://www.w3.org/1999/xlink" x="0px" y="0px"
	 viewBox="0 0 50 50" style="enable-background:new 0 0 50 50;" xml:space="preserve">
<style type="text/css">
	.st0{fill:#FFFFFF;}
</style>
<g>
	<path class="st0" d="M25.6,3.8c6.4,0,12.7,0,19.1,0c0.6,0,0.8,0.2,0.7,0.8c-0.2,1.5-0.3,3.1-0.5,4.6c-0.1,1.1-0.2,2.2-0.3,3.2
		c-0.1,1.7-0.3,3.3-0.5,5c-0.1,1-0.2,2.1-0.3,3.1c-0.2,1.7-0.3,3.3-0.5,5c-0.1,1-0.2,2-0.3,3c-0.2,1.7-0.3,3.4-0.5,5.1
		c-0.1,1-0.2,2-0.3,3c-0.2,1.7-0.3,3.4-0.5,5.1c-0.1,0.7-0.1,1.4-0.2,2.2c0,0.2-0.2,0.5-0.4,0.6c-3.6,1-7.1,2-10.7,2.9
		c-1.5,0.4-3,0.7-4.5,1.3c-1,0.3-1.7-0.1-2.5-0.3c-4.6-1.2-9.2-2.5-13.7-3.8c-0.5-0.1-0.8-0.4-0.9-0.9c-0.1-1.1-0.2-2.2-0.3-3.3
		c-0.1-1.6-0.3-3.2-0.5-4.8c-0.1-1.1-0.2-2.2-0.3-3.3c-0.1-1.6-0.3-3.3-0.5-4.9c-0.1-1.1-0.2-2.2-0.3-3.2c-0.1-1.6-0.3-3.3-0.5-4.9
		c-0.1-1-0.2-2-0.3-3c-0.2-1.7-0.3-3.5-0.5-5.2C6.2,10,6.1,8.9,6,7.8C5.9,6.7,5.8,5.6,5.7,4.5c-0.1-0.6,0-0.7,0.6-0.7
		C12.7,3.8,19.1,3.8,25.6,3.8z M14.4,29.3c0.1,0.9,0.1,1.7,0.1,2.5c0.1,1.7,0.3,3.3,0.5,5c0,0.5,0.2,0.6,0.6,0.7
		c3,0.8,5.9,1.6,8.9,2.4c0.5,0.1,1,0.3,1.4,0.2c2.9-0.8,5.7-1.6,8.6-2.4c0.8-0.2,1.3-0.4,1.3-1.4c0-1.7,0.3-3.3,0.4-5
		c0.1-1,0.2-2.1,0.3-3.1c0.2-1.7,0.3-3.3,0.5-5c0.1-1.2,0.1-2.4,0.3-3.6c0.2-2,0.4-3.9,0.6-5.9c0-0.5,0.1-1,0.1-1.5
		c-8.3,0-16.6,0-24.8,0c0.2,1.7,0.3,3.3,0.5,4.9c0.4,0,0.6,0,0.9,0c5.8,0,11.6,0,17.5,0c0.5,0,0.7,0.2,0.6,0.7
		c-0.1,1.1-0.3,2.3-0.4,3.4c-0.1,0.9-0.1,0.9-1,0.9c-5.5,0-11,0-16.5,0c-0.3,0-0.5,0-0.8,0c0,0.2,0,0.4,0,0.5
		c0.1,1.3,0.3,2.5,0.3,3.8c0.1,0.7,0.1,0.8,0.8,0.8c5.3,0,10.6,0,15.8,0c0.6,0,0.7,0.2,0.7,0.7c-0.2,1.7-0.3,3.4-0.5,5.1
		c0,0.2-0.3,0.6-0.5,0.6c-1.2,0.4-2.4,0.7-3.6,1c-0.6,0.1-1.2,0.4-1.7,0.3c-1.7-0.4-3.4-0.9-5.1-1.4c-0.1,0-0.3-0.3-0.3-0.4
		c-0.1-1-0.2-2.1-0.3-3.1c0-0.2-0.3-0.5-0.5-0.5C17.6,29.3,16,29.3,14.4,29.3z"/>
</g>
</svg>
