<?xml version="1.0" encoding="utf-8"?>
<!-- Generator: Adobe Illustrator 21.0.0, SVG Export Plug-In . SVG Version: 6.00 Build 0)  -->
<svg version="1.1" id="Layer_1" xmlns="http://www.w3.org/2000/svg" xmlns:xlink="http://www.w3.org/1999/xlink" x="0px" y="0px"
	 viewBox="0 0 50 50" style="enable-background:new 0 0 50 50;" xml:space="preserve">
<style type="text/css">
	.st0{fill:#FFFFFF;}
</style>
<g>
	<path class="st0" d="M5.8,4.3c0-0.2,0-0.4,0-0.6c0.3,0,0.5,0,0.8,0c12.2,0,24.3,0,36.5,0c0.2,0,0.4,0,0.7,0
		c-0.1,0.9-0.1,1.7-0.2,2.5c-0.1,1.6-0.3,3.3-0.5,4.9c-0.1,1-0.2,1.9-0.2,2.9c-0.1,1.5-0.3,3.1-0.4,4.6c-0.1,1-0.2,2.1-0.2,3.1
		c-0.1,1.6-0.3,3.3-0.5,4.9c-0.1,1-0.2,2-0.3,3c-0.1,1.5-0.3,3-0.4,4.5c-0.1,1-0.1,2.1-0.2,3.1c-0.1,1.5-0.3,3.1-0.4,4.6
		c0,0.4-0.1,0.5-0.5,0.7c-4.6,1.3-9.3,2.5-13.9,3.9c-0.8,0.2-1.5,0.3-2.3,0c-0.3-0.1-0.5-0.2-0.8-0.2c-2.8-0.8-5.5-1.5-8.3-2.3
		c-1.5-0.4-3-0.8-4.5-1.2c-0.2-0.1-0.6-0.3-0.6-0.5c-0.1-0.8-0.2-1.5-0.3-2.3c-0.1-1-0.1-2.1-0.2-3.1c-0.1-1.6-0.3-3.1-0.4-4.7
		C8.3,31,8.2,30,8.1,29c-0.1-1.5-0.3-3-0.4-4.5c-0.1-1.1-0.1-2.2-0.2-3.3c-0.2-1.9-0.4-3.7-0.6-5.6c-0.2-1.7-0.3-3.4-0.5-5.1
		C6.3,8.5,6.1,6.5,6,4.6C5.9,4.5,5.9,4.4,5.8,4.3z M30.6,26c0,0.3,0,0.4,0,0.6c-0.2,1.8-0.3,3.5-0.5,5.3c0,0.1-0.3,0.3-0.4,0.4
		c-1.3,0.4-2.6,0.7-4,1c-0.4,0.1-0.9,0.2-1.3,0.1c-1.5-0.3-2.9-0.8-4.4-1.1c-0.4-0.1-0.5-0.3-0.5-0.7c0-1-0.2-2.1-0.2-3.1
		c-1.6,0-3.2,0-4.8,0c0,0.7,0.1,1.3,0.1,1.9c0.1,1.6,0.3,3.2,0.4,4.8c0,0.5,0.2,0.8,0.8,1c2.5,0.7,4.9,1.4,7.3,2
		c0.8,0.2,1.5,0.6,2.4,0.3c0.7-0.2,1.5-0.4,2.2-0.6c2.2-0.6,4.4-1.2,6.6-1.8c0.1,0,0.3-0.2,0.3-0.4c0.1-0.9,0.2-1.8,0.2-2.7
		c0.1-1,0.2-2,0.2-3c0.1-1.6,0.3-3.1,0.4-4.7c0.1-1,0.2-2.1,0.2-3.1c0-0.3,0.1-0.5,0.1-0.9c-0.3,0-0.6,0-0.8,0c-5.2,0-10.5,0-15.7,0
		c-0.2,0-0.3,0-0.5,0c-0.1,0-0.3-0.2-0.3-0.3c-0.1-1.2-0.2-2.5-0.4-3.7c-0.1-0.6,0.1-0.8,0.7-0.7c5.5,0,11.1,0,16.6,0
		c0.2,0,0.5,0,0.8,0c0.1-1.6,0.3-3.2,0.4-4.8c-8,0-15.9,0-23.8,0c0.4,4.8,0.9,9.5,1.3,14.3C19.7,26,25.1,26,30.6,26z"/>
</g>
</svg>
