<?xml version="1.0" encoding="utf-8"?>
<!-- Generator: Adobe Illustrator 21.0.0, SVG Export Plug-In . SVG Version: 6.00 Build 0)  -->
<svg version="1.1" id="Layer_1" xmlns="http://www.w3.org/2000/svg" xmlns:xlink="http://www.w3.org/1999/xlink" x="0px" y="0px"
	 viewBox="0 0 50 50" style="enable-background:new 0 0 50 50;" xml:space="preserve">
<style type="text/css">
	.st0{fill:#FFFFFF;stroke:#FFFFFF;stroke-width:0.75;stroke-miterlimit:10;}
</style>
<g>
	<path class="st0" d="M40.1,34.9c0,4.2,0,8.4,0,12.6c-9.6,0-19.1,0-28.7,0c0-4.3,0-8.5,0-12.9c0.5,0,1,0,1.6,0c1.9,0,3.8,0,5.7,0
		c0.6,0,0.8-0.2,0.8-0.8c0-5.9,0-11.8,0-17.7c0-0.6-0.2-0.8-0.8-0.8c-2.1,0-4.2,0-6.3,0c-0.3,0-0.6,0-1,0c0.8-4.4,1.6-8.6,2.5-12.9
		c8.8,0,17.6,0,26.4,0c0,4.2,0,8.5,0,12.8c-0.7,0-1.4,0-2,0c-1.8,0-3.7,0-5.5,0c-0.5,0-0.7,0.1-0.7,0.7c0,6.1,0,12.3,0,18.4
		c0,0.6,0.3,0.6,0.8,0.6c2.2,0,4.3,0,6.5,0C39.4,34.9,39.7,34.9,40.1,34.9z M20.1,3.8c0,14.3,0,28.3,0,42.4c0.2-0.1,0.3-0.2,0.4-0.3
		c3.4-3.4,6.8-6.9,10.2-10.4c0.3-0.3,0.5-0.8,0.5-1.2c0-6.1,0-12.3,0-18.4c0-0.4-0.2-1-0.5-1.3C28.2,12,25.6,9.4,23,6.7
		C22.1,5.8,21.2,4.8,20.1,3.8z M39.4,3.3c-6.3,0-12.4,0-18.7,0c0.1,0.2,0.2,0.3,0.3,0.4c3.5,3.5,6.9,7.1,10.4,10.6
		c0.2,0.2,0.6,0.3,0.9,0.3c1.5,0,2.9,0,4.4,0c0.9,0,1.8,0,2.7,0C39.4,10.8,39.4,7,39.4,3.3z M20.7,46.4c0.1,0.1,0.1,0.2,0.2,0.3
		c0.2,0,0.5,0,0.7,0c4.8,0,9.5,0,14.3,0c0.7,0,0.9-0.2,1-0.8c0.7-3.1,1.5-6.2,2.2-9.4c0.1-0.3,0.1-0.6,0.2-1c-2.3,0-4.5,0-6.8,0
		c-0.5,0-1,0.2-1.4,0.6c-2.7,2.7-5.4,5.4-8.1,8.1C22.3,45,21.5,45.7,20.7,46.4z M12.1,35.3c0,3.9,0,7.7,0,11.5c2.5,0,4.9,0,7.3,0
		c0-0.1,0.1-0.2,0.1-0.3c0-3.5,0-7,0-10.6c0-0.5-0.3-0.6-0.7-0.6c-1.3,0-2.6,0-3.9,0C13.9,35.3,13,35.3,12.1,35.3z M19.4,3.2
		c-1.7,0-3.2,0-4.7,0c-0.2,0-0.5,0.4-0.6,0.6c-0.5,2.6-1,5.2-1.5,7.7c-0.2,1-0.4,2.1-0.6,3.2c2.3,0,4.4,0,6.6,0
		c0.7,0,0.8-0.2,0.8-0.8c0-2.7,0-5.5,0-8.2C19.4,4.9,19.4,4.1,19.4,3.2z M39.4,46.8c0-2.5,0-5,0-7.4c-0.1,0-0.1,0-0.2,0
		c-0.6,2.5-1.2,4.9-1.8,7.4C38.2,46.8,38.8,46.8,39.4,46.8z"/>
</g>
</svg>
