<?xml version="1.0" encoding="utf-8"?>
<!-- Generator: Adobe Illustrator 21.0.0, SVG Export Plug-In . SVG Version: 6.00 Build 0)  -->
<svg version="1.1" id="Layer_1" xmlns="http://www.w3.org/2000/svg" xmlns:xlink="http://www.w3.org/1999/xlink" x="0px" y="0px"
	 viewBox="0 0 50 50" style="enable-background:new 0 0 50 50;" xml:space="preserve">
<style type="text/css">
	.st0{fill:#FFFFFF;}
</style>
<g>
	<path class="st0" d="M44.9,3.9c0,0,0,0.1,0,0.1c0,0.1-0.1,0.3-0.1,0.4c-0.2,1.8-0.3,3.6-0.5,5.4c-0.4,4.1-0.7,8.2-1.1,12.2
		c-0.3,3.6-0.6,7.2-1,10.9c-0.3,3.6-0.7,7.3-1,10.9c0,0.5-0.2,0.6-0.6,0.7c-5.1,1.4-10.1,2.8-15.2,4.2c-0.3,0.1-0.6,0.1-0.9,0
		c-5.1-1.4-10.3-2.8-15.4-4.3c-0.4-0.1-0.5-0.3-0.5-0.7c0-0.7-0.1-1.4-0.2-2.1c-0.2-2.1-0.4-4.2-0.6-6.3c-0.1-1.5-0.3-3.1-0.4-4.6
		c-0.2-2-0.4-4-0.6-6c-0.2-2.1-0.3-4.1-0.5-6.2c-0.2-2.1-0.4-4.2-0.6-6.3c-0.1-1.6-0.3-3.2-0.4-4.8C5.3,6.5,5.2,5.5,5.1,4.4
		c0-0.4,0.1-0.6,0.5-0.5c0.2,0,0.4,0,0.6,0C19.1,3.9,32,3.9,44.9,3.9z M13.9,29.5c0,0.2-0.1,0.4,0,0.5c0.2,2.4,0.4,4.8,0.5,7.2
		c0,0.4,0.2,0.5,0.5,0.5c3.2,0.9,6.4,1.8,9.6,2.6c0.2,0,0.4,0,0.6,0c3.1-0.9,6.3-1.7,9.4-2.6c0.5-0.1,0.7-0.4,0.7-0.9
		c0.7-7.7,1.4-15.4,2.1-23.1c0.1-0.6,0.1-1.2,0.1-1.8c-8.4,0-16.8,0-25.2,0c0,0.2,0,0.3,0,0.5c0.1,1.3,0.2,2.5,0.3,3.8
		c0,0.8,0,0.8,0.9,0.8c5.9,0,11.7,0,17.6,0c0.3,0,0.5,0,0.8,0c0,0.2,0,0.4,0,0.6c-0.2,2.5-0.5,5.1-0.7,7.6c-0.2,2.5-0.5,4.9-0.7,7.4
		c0,0.5-0.2,0.8-0.8,1c-1.5,0.4-3,0.8-4.5,1.2c-0.2,0-0.4,0-0.6,0c-1.6-0.4-3.1-0.8-4.7-1.2c-0.4-0.1-0.6-0.3-0.6-0.8
		c-0.1-1-0.1-2-0.3-3c0-0.2-0.3-0.4-0.4-0.4C17.1,29.5,15.5,29.5,13.9,29.5z"/>
</g>
</svg>
