<?xml version="1.0" encoding="utf-8"?>
<!-- Generator: Adobe Illustrator 21.0.0, SVG Export Plug-In . SVG Version: 6.00 Build 0)  -->
<svg version="1.1" id="Layer_1" xmlns="http://www.w3.org/2000/svg" xmlns:xlink="http://www.w3.org/1999/xlink" x="0px" y="0px"
	 viewBox="0 0 50 50" style="enable-background:new 0 0 50 50;" xml:space="preserve">
<style type="text/css">
	.st0{fill:#FFFFFF;stroke:#FFFFFF;stroke-width:0.75;stroke-miterlimit:10;}
</style>
<g>
	<path class="st0" d="M41.5,46.9c-7.6-3.8-15-7.6-22.6-11.5c-0.8,4.1-1.6,8-2.4,12.1c-2.9-0.5-5.7-1-8.6-1.6
		c0.3-1.9,0.5-3.8,0.8-5.7c0.8-5.3,1.5-10.6,2.3-15.9c0.7-5.1,1.5-10.3,2.2-15.4c0-0.2,0.2-0.5,0.4-0.6c3.9-2,7.7-3.9,11.6-5.9
		c0.7,1.1,1.4,2.1,2.1,3.1c2.6,3.8,5.2,7.6,7.8,11.4c0.2,0.3,0.3,0.8,0.3,1.2c-0.2,1.8-0.5,3.7-0.7,5.5c-0.1,0.4-0.2,0.6-0.6,0.7
		c-1.6,0.4-3.2,0.9-5,1.4c0.6,0.7,1.1,1.3,1.6,1.8c3,3.1,6,6.2,9.1,9.3c1.4,1.4,2.7,2.8,4.1,4.2c0.2,0.2,0.3,0.5,0.2,0.7
		C43.3,43.6,42.4,45.2,41.5,46.9z M41.3,46.1c0.7-1.4,1.3-2.6,2-3.8c0.2-0.4,0.1-0.7-0.2-1c-1.7-1.7-3.4-3.5-5.1-5.3
		c-3.1-3.2-6.2-6.4-9.3-9.6c-0.2-0.2-0.6-0.3-0.8-0.2c-2.3,0.6-4.7,1.3-7,1.9c-0.3,0.1-0.6,0.4-0.6,0.7c-0.4,1.8-0.7,3.5-1.1,5.3
		c-0.1,0.5,0,0.7,0.4,0.9c0.2,0.1,0.4,0.2,0.6,0.3c6.1,3.1,12.2,6.2,18.4,9.3C39.4,45.2,40.3,45.6,41.3,46.1z M13.8,9.5
		c-0.1,0.4-0.2,0.6-0.2,0.8c-0.6,4.2-1.2,8.4-1.8,12.7c-0.1,0.5,0,0.7,0.5,0.9c1.5,0.7,3.1,1.5,4.6,2.3c1,0.5,1.9,0.9,2.9,1.4
		c0.1-0.2,0.1-0.2,0.1-0.3c0.6-2.8,1.1-5.5,1.7-8.3c0-0.2-0.1-0.6-0.3-0.8c-1.6-1.9-3.3-3.8-4.9-5.7C15.5,11.5,14.7,10.6,13.8,9.5z
		 M15.8,46.8c0.1-0.1,0.1-0.2,0.2-0.2c0.7-3.6,1.5-7.2,2.2-10.9c0.1-0.5-0.1-0.7-0.5-0.8c-2.1-1.1-4.3-2.2-6.4-3.2
		c-0.2-0.1-0.4-0.1-0.7-0.2c-0.7,4.7-1.3,9.3-2,14.1C11,45.9,13.4,46.3,15.8,46.8z M27.1,14.7c0.5,3.7,1,7.1,1.5,10.7
		c1.8-0.5,3.4-0.9,5-1.4c0.2-0.1,0.5-0.4,0.5-0.6c0.2-1.6,0.4-3.2,0.7-4.8c0.1-0.5,0-0.8-0.6-1c-1.8-0.7-3.6-1.5-5.4-2.2
		C28.3,15.2,27.8,15,27.1,14.7z M24.7,3.5c-3.5,1.8-6.9,3.4-10.2,5.1c0,0.1,0,0.2,0,0.2c2.8,1.1,5.5,2.3,8.4,3.5
		C23.5,9.3,24.1,6.5,24.7,3.5z M33.9,16.8c0.1-0.1,0.1-0.1,0.2-0.2c-2.7-3.9-5.4-7.9-8.1-11.8c-0.1,0-0.1,0.1-0.2,0.1
		c0,0.3,0,0.5,0,0.8c0.3,1.9,0.7,3.8,0.8,5.7c0.1,2.1,1,3.2,3,3.7C31,15.5,32.4,16.2,33.9,16.8z M23.4,13.1
		c-0.3,1.7-0.7,3.2-0.9,4.7c-0.1,0.3,0.1,0.7,0.3,1c1.5,1.8,3,3.6,4.6,5.3c0.1,0.1,0.3,0.2,0.4,0.3c0-0.2,0.1-0.2,0-0.3
		c-0.4-3.1-0.9-6.2-1.3-9.3c0-0.2-0.1-0.4-0.2-0.5C25.3,13.9,24.4,13.6,23.4,13.1z M27.8,25.6c-1.9-2.2-3.7-4.2-5.6-6.5
		c-0.6,3-1.1,5.6-1.7,8.5C22.9,27,25.2,26.3,27.8,25.6z M18.9,28.1c0-0.1,0-0.2,0-0.2c-2.4-1.2-4.8-2.4-7.3-3.6
		c-0.3,2.1-0.6,4-0.9,6.1C13.6,29.5,16.2,28.8,18.9,28.1z M18.4,34.5c0.4-2,0.8-3.9,1.2-6c-2.8,0.8-5.5,1.5-8.1,2.3
		c0,0.1,0,0.2,0,0.2C13.8,32.1,16,33.3,18.4,34.5z M21.6,17.6c0.1,0,0.1-0.1,0.2-0.1c0.2-1.2,0.4-2.4,0.8-3.6
		c0.2-0.8-0.1-1.1-0.8-1.4c-2-0.8-3.9-1.6-5.8-2.4c-0.3-0.1-0.6-0.2-0.8-0.3c0,0.1-0.1,0.1-0.1,0.2C17.2,12.5,19.4,15,21.6,17.6z
		 M25.2,5.7c-0.1,0-0.1,0-0.2-0.1c0,0.1-0.1,0.1-0.1,0.2c-0.4,2.1-0.9,4.2-1.3,6.3c0,0.1,0.1,0.4,0.2,0.4c0.8,0.4,1.6,0.7,2.5,1.1
		C25.9,10.9,25.6,8.3,25.2,5.7z"/>
</g>
</svg>
