<?xml version="1.0" encoding="utf-8"?>
<!-- Generator: Adobe Illustrator 21.0.0, SVG Export Plug-In . SVG Version: 6.00 Build 0)  -->
<svg version="1.1" id="Layer_1" xmlns="http://www.w3.org/2000/svg" xmlns:xlink="http://www.w3.org/1999/xlink" x="0px" y="0px"
	 viewBox="0 0 50 50" style="enable-background:new 0 0 50 50;" xml:space="preserve">
<style type="text/css">
	.st0{fill:#FFFFFF;}
</style>
<g>
	<path class="st0" d="M1.8,47.4C4.7,40.7,8.6,35.1,13,29.7c0.3,0.2,0.6,0.3,0.9,0.5c-1.9,3.8-3.8,7.7-6,12c1.6,0,2.5,0.3,3.2,0
		c4.6-1.9,8.5-4.6,11.1-9c1.8-3,1-4.9-2.3-5.6c-2.8-0.6-5.7-0.7-8.5-1c-1.1-0.1-2.3-0.1-3.5-0.5c3.2-1.5,6.5-2.3,9.9-2.1
		c2.3,0.1,4.6,0.6,6.8,1.3c2.7,0.8,3.6,3.1,2.7,5.8c-1.5,4.3-4.7,7.1-8.2,9.5c-4.8,3.3-9.9,5.9-15.8,6.8C3,47.5,2.6,47.5,1.8,47.4z"
		/>
	<path class="st0" d="M48.2,20.2c-2.3,0.1-4.7,0.3-7,0.4c-0.8,0-1.6,0-2.4,0c-2.6,0.2-3.7,2.2-2.1,4.3c1.9,2.5,4,4.9,6,7.3
		c0.2,0.2,0.4,0.4,0.6,0.7c3.9,5.3,2.9,8-3.5,9.5c-3.7,0.8-12.6,0.1-15.5-1.7c1.4-0.1,2.3-0.3,3.1-0.3c3.6-0.3,7.2-0.4,10.7-0.8
		c2.6-0.3,3.2-1.9,1.6-4c-2.4-3.2-5.1-6.1-7.3-9.3c-2.9-4.4-0.8-8.2,4.5-8.2c3.2,0,6.3,0.3,9.5,0.5c0.6,0,1.1,0.5,1.7,0.7
		C48.2,19.6,48.2,19.9,48.2,20.2z"/>
	<path class="st0" d="M18.4,3.9c1.2-0.3,2.3-0.9,3.6-1c3.9-0.4,7.9-1,11.7,0.9c2.6,1.3,3.3,3.4,1.9,5.9c-3.4,5.9-8.9,9.3-15,11.8
		c-0.2,0.1-0.5,0-1.3-0.1c1.6-1.4,2.9-2.4,4.1-3.5c2.6-2.4,5.3-4.8,7.5-7.5c1.9-2.3,1.1-4.1-1.8-4.7C26.6,5.2,24,5.2,21.5,5
		c-1-0.1-2-0.2-3-0.3C18.5,4.5,18.4,4.2,18.4,3.9z"/>
</g>
</svg>
